<svg width="24" height="24" viewBox="0 0 24 24" fill="none" xmlns="http://www.w3.org/2000/svg">
<mask id="mask0_1156_43" style="mask-type:alpha" maskUnits="userSpaceOnUse" x="0" y="0" width="24" height="24">
<rect width="24" height="24" fill="#D9D9D9"/>
</mask>
<g mask="url(#mask0_1156_43)">
<path d="M18 21V18H15V16H18V13H20V16H23V18H20V21H18ZM5.62505 21.5C5.27505 21.5 4.95005 21.4083 4.65005 21.225C4.35005 21.0417 4.10838 20.8 3.92505 20.5L1.57505 16.4C1.39172 16.1 1.30005 15.7667 1.30005 15.4C1.30005 15.0333 1.39172 14.7 1.57505 14.4L7.92505 3.5C8.10838 3.16667 8.35438 2.91667 8.66305 2.75C8.97105 2.58333 9.30005 2.5 9.65005 2.5H14.35C14.7 2.5 15.0294 2.58333 15.338 2.75C15.646 2.91667 15.8917 3.16667 16.075 3.5L20.55 11.175C20.3 11.0917 20.05 11.0373 19.8 11.012C19.55 10.9873 19.2834 10.975 19 10.975H18.5751C18.4417 10.975 18.3 10.9917 18.15 11.025L14.35 4.5H9.65005L3.30005 15.4L5.65005 19.5H13.55C13.7334 19.8833 13.946 20.2417 14.188 20.575C14.4294 20.9083 14.7167 21.2167 15.05 21.5H5.62505ZM7.25005 17L6.52505 15.725L11.1 7.75H12.9L15.425 12.15C15.125 12.3833 14.8627 12.621 14.638 12.863C14.4127 13.1043 14.2 13.375 14 13.675L12 10.2L9.25005 15H13.35C13.2167 15.3333 13.125 15.6627 13.075 15.988C13.025 16.3127 13 16.65 13 17H7.25005Z" fill="#A5A9AD"/>
</g>
</svg>
