<svg width="37" height="43" viewBox="0 0 37 43" fill="none" xmlns="http://www.w3.org/2000/svg">
<path d="M33.6433 39.9519V37.0518C33.6433 35.0978 33.6433 34.1219 33.4173 33.3239C33.1386 32.3358 32.6111 31.4358 31.8852 30.7099C31.1593 29.984 30.2593 29.4565 29.2713 29.1778C28.4733 28.9518 27.4973 28.9519 25.5433 28.9519H11.7433C9.78931 28.9519 8.81331 28.9518 8.01531 29.1778C7.02728 29.4565 6.12728 29.984 5.40138 30.7099C4.67548 31.4358 4.14798 32.3358 3.86931 33.3239C3.64331 34.1219 3.64331 35.0978 3.64331 37.0518V39.9519M28.0433 12.0718C28.0433 16.5618 24.2833 20.2018 19.6433 20.2018C15.0033 20.2018 11.2433 16.5618 11.2433 12.0718C11.2433 7.58185 15.0033 3.94385 19.6433 3.94385C24.2833 3.94385 28.0433 7.58385 28.0433 12.0718Z" stroke="white" stroke-width="6" stroke-linecap="round" stroke-linejoin="round"/>
</svg>
