<svg width="24" height="24" viewBox="0 0 24 24" fill="none" xmlns="http://www.w3.org/2000/svg">
<mask id="mask0_1091_83" style="mask-type:alpha" maskUnits="userSpaceOnUse" x="0" y="0" width="24" height="24">
<rect width="24" height="24" fill="#D9D9D9"/>
</mask>
<g mask="url(#mask0_1091_83)">
<path d="M5.74995 21.2998C5.24995 21.2998 4.82495 21.1248 4.47495 20.7748C4.12495 20.4248 3.94995 19.9998 3.94995 19.4998V6.7998H5.44995V19.4998C5.44995 19.5831 5.47895 19.6538 5.53695 19.7118C5.59562 19.7705 5.66662 19.7998 5.74995 19.7998H15.45V21.2998H5.74995ZM9.24995 17.7998C8.74995 17.7998 8.32495 17.6248 7.97495 17.2748C7.62495 16.9248 7.44995 16.4998 7.44995 15.9998V4.6248C7.44995 4.10814 7.62495 3.6748 7.97495 3.3248C8.32495 2.9748 8.74995 2.7998 9.24995 2.7998H17.625C18.1416 2.7998 18.575 2.9748 18.925 3.3248C19.275 3.6748 19.45 4.10814 19.45 4.6248V15.9998C19.45 16.4998 19.275 16.9248 18.925 17.2748C18.575 17.6248 18.1416 17.7998 17.625 17.7998H9.24995ZM9.24995 16.2998H17.625C17.7083 16.2998 17.7833 16.2705 17.85 16.2118C17.9166 16.1538 17.95 16.0831 17.95 15.9998V4.6248C17.95 4.54147 17.9166 4.46647 17.85 4.3998C17.7833 4.33314 17.7083 4.2998 17.625 4.2998H9.24995C9.16662 4.2998 9.09595 4.33314 9.03795 4.3998C8.97928 4.46647 8.94995 4.54147 8.94995 4.6248V15.9998C8.94995 16.0831 8.97928 16.1538 9.03795 16.2118C9.09595 16.2705 9.16662 16.2998 9.24995 16.2998Z" fill="#1C1B1F"/>
</g>
</svg>
