<svg width="14" height="14" viewBox="0 0 14 14" fill="none" xmlns="http://www.w3.org/2000/svg">
<mask id="mask0_330_7" style="mask-type:alpha" maskUnits="userSpaceOnUse" x="0" y="0" width="14" height="14">
<rect width="14" height="14" fill="#D9D9D9"/>
</mask>
<g mask="url(#mask0_330_7)">
<path d="M2.91667 12.8334C2.59583 12.8334 2.32108 12.7192 2.09242 12.4909C1.86414 12.2623 1.75 11.9875 1.75 11.6667V3.50002H2.91667V11.6667H9.33333V12.8334H2.91667ZM5.25 10.5C4.92917 10.5 4.65461 10.3859 4.42633 10.1576C4.19767 9.92894 4.08333 9.65419 4.08333 9.33335V2.33335C4.08333 2.01252 4.19767 1.73777 4.42633 1.5091C4.65461 1.28083 4.92917 1.16669 5.25 1.16669H10.5C10.8208 1.16669 11.0956 1.28083 11.3243 1.5091C11.5525 1.73777 11.6667 2.01252 11.6667 2.33335V9.33335C11.6667 9.65419 11.5525 9.92894 11.3243 10.1576C11.0956 10.3859 10.8208 10.5 10.5 10.5H5.25ZM5.25 9.33335H10.5V2.33335H5.25V9.33335Z" fill="white"/>
</g>
</svg>
