<svg width="14" height="14" viewBox="0 0 14 14" fill="none" xmlns="http://www.w3.org/2000/svg">
<mask id="mask0_330_13" style="mask-type:alpha" maskUnits="userSpaceOnUse" x="0" y="0" width="14" height="14">
<rect width="14" height="14" fill="#D9D9D9"/>
</mask>
<g mask="url(#mask0_330_13)">
<path d="M8.45837 10.7917C8.70143 10.7917 8.90793 10.7065 9.07787 10.5362C9.24821 10.3662 9.33337 10.1597 9.33337 9.91669C9.33337 9.67363 9.24821 9.46713 9.07787 9.29719C8.90793 9.12685 8.70143 9.04169 8.45837 9.04169C8.21532 9.04169 8.00882 9.12685 7.83887 9.29719C7.66854 9.46713 7.58337 9.67363 7.58337 9.91669C7.58337 10.1597 7.66854 10.3662 7.83887 10.5362C8.00882 10.7065 8.21532 10.7917 8.45837 10.7917ZM5.51254 10.7625L9.30421 6.97085L8.48754 6.15419L4.69587 9.94585L5.51254 10.7625ZM5.54171 7.87502C5.78476 7.87502 5.99126 7.78985 6.16121 7.61952C6.33154 7.44958 6.41671 7.24308 6.41671 7.00002C6.41671 6.75697 6.33154 6.55047 6.16121 6.38052C5.99126 6.21019 5.78476 6.12502 5.54171 6.12502C5.29865 6.12502 5.09215 6.21019 4.92221 6.38052C4.75187 6.55047 4.66671 6.75697 4.66671 7.00002C4.66671 7.24308 4.75187 7.44958 4.92221 7.61952C5.09215 7.78985 5.29865 7.87502 5.54171 7.87502ZM3.50004 12.8334C3.17921 12.8334 2.90465 12.7192 2.67637 12.4909C2.44771 12.2623 2.33337 11.9875 2.33337 11.6667V2.33335C2.33337 2.01252 2.44771 1.73777 2.67637 1.5091C2.90465 1.28083 3.17921 1.16669 3.50004 1.16669H8.16671L11.6667 4.66669V11.6667C11.6667 11.9875 11.5526 12.2623 11.3243 12.4909C11.0956 12.7192 10.8209 12.8334 10.5 12.8334H3.50004ZM7.58337 5.25002V2.33335H3.50004V11.6667H10.5V5.25002H7.58337Z" fill="white"/>
</g>
</svg>
