<svg width="23" height="27" viewBox="0 0 23 27" fill="none" xmlns="http://www.w3.org/2000/svg">
<path d="M21.02 25.5059V24.9059C21.02 23.6032 21.02 22.9525 20.8975 22.4205C20.7464 21.7618 20.4605 21.1618 20.067 20.6779C19.6736 20.194 19.1857 19.8423 18.6502 19.6565C18.2176 19.5059 17.6886 19.5059 16.6295 19.5059H11.8595C10.8004 19.5059 10.2713 19.5059 9.8388 19.6565C9.30325 19.8423 8.81542 20.194 8.42195 20.6779C8.02849 21.1618 7.74256 21.7618 7.59151 22.4205C7.46901 22.9525 7.46901 23.6032 7.46901 24.9059V25.5059M1.50659 20.8392V18.7059C1.50659 17.5899 1.50659 17.0325 1.59657 16.5725C1.73657 15.8551 2.03515 15.1993 2.45931 14.6776C2.88347 14.156 3.41668 13.7887 3.99997 13.6165C4.37397 13.5059 4.82712 13.5059 5.73449 13.5059H5.8429" stroke="#A5A9AD" stroke-width="2" stroke-linecap="round" stroke-linejoin="round"/>
<path d="M18.3097 10.173C18.3097 11.4107 17.91 12.5977 17.1984 13.4728C16.4868 14.348 15.5218 14.8397 14.5155 14.8397C13.5092 14.8397 12.5441 14.348 11.8325 13.4728C11.1209 12.5977 10.7212 11.4107 10.7212 10.173C10.7212 8.93534 11.1209 7.74835 11.8325 6.87318C12.5441 5.99801 13.5092 5.50635 14.5155 5.50635C15.5218 5.50635 16.4868 5.99801 17.1984 6.87318C17.91 7.74835 18.3097 8.93534 18.3097 10.173Z" stroke="#A5A9AD" stroke-width="2"/>
<path d="M10.1791 3.34635C9.54387 2.23701 8.45654 1.50635 7.22286 1.50635C5.26285 1.50635 3.67468 3.34901 3.67468 5.62368C3.67468 7.41568 4.66119 8.94101 6.04014 9.50635" stroke="#A5A9AD" stroke-width="2" stroke-linecap="round"/>
</svg>
