<svg width="14" height="14" viewBox="0 0 14 14" fill="none" xmlns="http://www.w3.org/2000/svg">
<mask id="mask0_331_37" style="mask-type:alpha" maskUnits="userSpaceOnUse" x="0" y="0" width="14" height="14">
<rect width="14" height="14" fill="#D9D9D9"/>
</mask>
<g mask="url(#mask0_331_37)">
<path d="M4.08331 12.25C3.76248 12.25 3.48792 12.1359 3.25965 11.9076C3.03098 11.6789 2.91665 11.4042 2.91665 11.0833V3.5H2.33331V2.33333H5.24998V1.75H8.74998V2.33333H11.6666V3.5H11.0833V11.0833C11.0833 11.4042 10.9692 11.6789 10.7409 11.9076C10.5122 12.1359 10.2375 12.25 9.91665 12.25H4.08331ZM9.91665 3.5H4.08331V11.0833H9.91665V3.5ZM5.24998 9.91667H6.41665V4.66667H5.24998V9.91667ZM7.58331 9.91667H8.74998V4.66667H7.58331V9.91667Z" fill="white"/>
</g>
</svg>
