<svg width="18" height="18" viewBox="0 0 18 18" fill="none" xmlns="http://www.w3.org/2000/svg">
<mask id="mask0_332_49" style="mask-type:alpha" maskUnits="userSpaceOnUse" x="0" y="0" width="18" height="18">
<rect width="18" height="18" fill="#D9D9D9"/>
</mask>
<g mask="url(#mask0_332_49)">
<path d="M12.375 15H13.125V12H12.375V15ZM12.75 11.25C12.85 11.25 12.9375 11.2125 13.0125 11.1375C13.0875 11.0625 13.125 10.975 13.125 10.875C13.125 10.775 13.0875 10.6875 13.0125 10.6125C12.9375 10.5375 12.85 10.5 12.75 10.5C12.65 10.5 12.5625 10.5375 12.4875 10.6125C12.4125 10.6875 12.375 10.775 12.375 10.875C12.375 10.975 12.4125 11.0625 12.4875 11.1375C12.5625 11.2125 12.65 11.25 12.75 11.25ZM5.25 10.5H8.00625C8.14375 10.2125 8.303 9.94375 8.484 9.69375C8.6655 9.44375 8.86875 9.2125 9.09375 9H5.25V10.5ZM5.25 13.5H7.55625C7.51875 13.25 7.5 13 7.5 12.75C7.5 12.5 7.51875 12.25 7.55625 12H5.25V13.5ZM3.75 16.5C3.3375 16.5 2.98425 16.3533 2.69025 16.0598C2.39675 15.7658 2.25 15.4125 2.25 15V3C2.25 2.5875 2.39675 2.23425 2.69025 1.94025C2.98425 1.64675 3.3375 1.5 3.75 1.5H9.75L14.25 6V7.725C14.0125 7.65 13.7687 7.59375 13.5187 7.55625C13.2687 7.51875 13.0125 7.5 12.75 7.5V6.75H9V3H3.75V15H8.00625C8.14375 15.2875 8.303 15.5563 8.484 15.8063C8.6655 16.0563 8.86875 16.2875 9.09375 16.5H3.75ZM12.75 9C13.7875 9 14.672 9.3655 15.4035 10.0965C16.1345 10.828 16.5 11.7125 16.5 12.75C16.5 13.7875 16.1345 14.672 15.4035 15.4035C14.672 16.1345 13.7875 16.5 12.75 16.5C11.7125 16.5 10.8283 16.1345 10.0973 15.4035C9.36575 14.672 9 13.7875 9 12.75C9 11.7125 9.36575 10.828 10.0973 10.0965C10.8283 9.3655 11.7125 9 12.75 9Z" fill="white"/>
</g>
</svg>
