<svg width="21" height="21" viewBox="0 0 21 21" fill="none" xmlns="http://www.w3.org/2000/svg">
<mask id="mask0_216_7" style="mask-type:alpha" maskUnits="userSpaceOnUse" x="0" y="0" width="21" height="21">
<rect x="0.0769043" y="0.846191" width="20" height="20" fill="#D9D9D9"/>
</mask>
<g mask="url(#mask0_216_7)">
<path d="M5.07694 17.5128C4.61861 17.5128 4.22639 17.3498 3.90028 17.0237C3.57361 16.697 3.41028 16.3045 3.41028 15.8462V13.3462H5.07694V15.8462H15.0769V13.3462H16.7436V15.8462C16.7436 16.3045 16.5806 16.697 16.2544 17.0237C15.9278 17.3498 15.5353 17.5128 15.0769 17.5128H5.07694ZM10.0769 14.1795L5.91028 10.0128L7.07694 8.8045L9.24361 10.9712V4.1795H10.9103V10.9712L13.0769 8.8045L14.2436 10.0128L10.0769 14.1795Z" fill="white"/>
</g>
</svg>
