<svg width="15" height="15" viewBox="0 0 15 15" fill="none" xmlns="http://www.w3.org/2000/svg">
<mask id="mask0_331_43" style="mask-type:alpha" maskUnits="userSpaceOnUse" x="0" y="0" width="15" height="15">
<rect x="0.162109" y="0.89209" width="14" height="14" fill="#D9D9D9"/>
</mask>
<g mask="url(#mask0_331_43)">
<path d="M3.07878 14.7171C2.75794 14.7171 2.48319 14.6027 2.25453 14.3741C2.02625 14.1458 1.91211 13.8712 1.91211 13.5504V5.38372C1.91211 5.06289 2.02625 4.78814 2.25453 4.55947C2.48319 4.3312 2.75794 4.21706 3.07878 4.21706H8.28503L7.11836 5.38372H3.07878V13.5504H11.2454V9.49622L12.4121 8.32956V13.5504C12.4121 13.8712 12.298 14.1458 12.0697 14.3741C11.841 14.6027 11.5663 14.7171 11.2454 14.7171H3.07878ZM9.59753 4.55247L10.4288 5.36914L6.57878 9.21914V10.0504H7.39544L11.26 6.18581L12.0913 7.00247L7.89128 11.2171H5.41211V8.73789L9.59753 4.55247ZM12.0913 7.00247L9.59753 4.55247L11.0559 3.09414C11.2892 2.86081 11.5688 2.74414 11.8947 2.74414C12.2202 2.74414 12.4947 2.86081 12.7184 3.09414L13.535 3.92539C13.7586 4.149 13.8704 4.42122 13.8704 4.74206C13.8704 5.06289 13.7586 5.33511 13.535 5.55872L12.0913 7.00247Z" fill="white"/>
</g>
</svg>
