<svg width="14" height="14" viewBox="0 0 14 14" fill="none" xmlns="http://www.w3.org/2000/svg">
<mask id="mask0_330_19" style="mask-type:alpha" maskUnits="userSpaceOnUse" x="0" y="0" width="14" height="14">
<rect width="14" height="14" fill="#D9D9D9"/>
</mask>
<g mask="url(#mask0_330_19)">
<path d="M3.50004 12.8334C3.17921 12.8334 2.90465 12.7192 2.67637 12.4909C2.44771 12.2623 2.33337 11.9875 2.33337 11.6667V2.33335C2.33337 2.01252 2.44771 1.73777 2.67637 1.5091C2.90465 1.28083 3.17921 1.16669 3.50004 1.16669H8.16671L11.6667 4.66669V7.20419C11.482 7.13613 11.2924 7.08499 11.098 7.05077C10.9035 7.01694 10.7042 7.00002 10.5 7.00002V5.25002H7.58337V2.33335H3.50004V11.6667H7.20421C7.28199 11.8903 7.37921 12.0993 7.49587 12.2938C7.61254 12.4882 7.74865 12.6681 7.90421 12.8334H3.50004ZM9.27504 12.5417L8.45837 11.725L9.68337 10.5L8.45837 9.27502L9.27504 8.45835L10.5 9.68335L11.725 8.45835L12.5417 9.27502L11.3313 10.5L12.5417 11.725L11.725 12.5417L10.5 11.3313L9.27504 12.5417Z" fill="white"/>
</g>
</svg>
