<svg width="25" height="25" viewBox="0 0 25 25" fill="none" xmlns="http://www.w3.org/2000/svg">
<mask id="mask0_214_7" style="mask-type:alpha" maskUnits="userSpaceOnUse" x="0" y="0" width="25" height="25">
<rect x="0.813965" y="0.86969" width="24" height="24" fill="#D9D9D9"/>
</mask>
<g mask="url(#mask0_214_7)">
<path d="M7.31396 20.8697C5.7973 20.8697 4.50163 20.3447 3.42696 19.2947C2.35163 18.2447 1.81396 16.9614 1.81396 15.4447C1.81396 14.1447 2.20563 12.9864 2.98896 11.9697C3.7723 10.953 4.7973 10.303 6.06396 10.0197C6.48063 8.48636 7.31396 7.24469 8.56396 6.29469C9.81396 5.34469 11.2306 4.86969 12.814 4.86969C14.764 4.86969 16.418 5.54869 17.776 6.90669C19.1346 8.26536 19.814 9.91969 19.814 11.8697C20.964 12.003 21.9183 12.4987 22.677 13.3567C23.435 14.2154 23.814 15.2197 23.814 16.3697C23.814 17.6197 23.3766 18.6824 22.502 19.5577C21.6266 20.4324 20.564 20.8697 19.314 20.8697H13.814C13.264 20.8697 12.7933 20.674 12.402 20.2827C12.01 19.8907 11.814 19.4197 11.814 18.8697V13.7197L10.214 15.2697L8.81396 13.8697L12.814 9.86969L16.814 13.8697L15.414 15.2697L13.814 13.7197V18.8697H19.314C20.014 18.8697 20.6056 18.628 21.089 18.1447C21.5723 17.6614 21.814 17.0697 21.814 16.3697C21.814 15.6697 21.5723 15.078 21.089 14.5947C20.6056 14.1114 20.014 13.8697 19.314 13.8697H17.814V11.8697C17.814 10.4864 17.3266 9.30702 16.352 8.33169C15.3766 7.35702 14.1973 6.86969 12.814 6.86969C11.4306 6.86969 10.2516 7.35702 9.27697 8.33169C8.30163 9.30702 7.81396 10.4864 7.81396 11.8697H7.31396C6.3473 11.8697 5.5223 12.2114 4.83896 12.8947C4.15563 13.578 3.81396 14.403 3.81396 15.3697C3.81396 16.3364 4.15563 17.1614 4.83896 17.8447C5.5223 18.528 6.3473 18.8697 7.31396 18.8697H9.81396V20.8697H7.31396Z" fill="white"/>
</g>
</svg>
