<svg width="35" height="35" viewBox="0 0 35 35" fill="none" xmlns="http://www.w3.org/2000/svg">
<mask id="mask0_1157_19" style="mask-type:alpha" maskUnits="userSpaceOnUse" x="0" y="0" width="35" height="35">
<rect width="35" height="35" fill="#D9D9D9"/>
</mask>
<g mask="url(#mask0_1157_19)">
<path d="M16.0417 27.7082H18.9584V26.2498H20.4167C20.8299 26.2498 21.1765 26.1098 21.4565 25.8298C21.7355 25.5508 21.875 25.2047 21.875 24.7915V20.4165C21.875 20.0033 21.7355 19.6567 21.4565 19.3767C21.1765 19.0977 20.8299 18.9582 20.4167 18.9582H16.0417V17.4998H21.875V14.5832H18.9584V13.1248H16.0417V14.5832H14.5834C14.1702 14.5832 13.8241 14.7227 13.545 15.0017C13.265 15.2817 13.125 15.6283 13.125 16.0415V20.4165C13.125 20.8297 13.265 21.1758 13.545 21.4548C13.8241 21.7348 14.1702 21.8748 14.5834 21.8748H18.9584V23.3332H13.125V26.2498H16.0417V27.7082ZM8.75004 32.0832C7.94796 32.0832 7.26157 31.7978 6.69087 31.2271C6.11921 30.6555 5.83337 29.9686 5.83337 29.1665V5.83317C5.83337 5.03109 6.11921 4.34421 6.69087 3.77255C7.26157 3.20185 7.94796 2.9165 8.75004 2.9165H20.4167L29.1667 11.6665V29.1665C29.1667 29.9686 28.8814 30.6555 28.3107 31.2271C27.739 31.7978 27.0521 32.0832 26.25 32.0832H8.75004ZM18.9584 11.6665V5.83317H8.75004V29.1665H26.25V11.6665H18.9584Z" fill="white"/>
</g>
</svg>
