<svg width="25" height="25" viewBox="0 0 25 25" fill="none" xmlns="http://www.w3.org/2000/svg">
<mask id="mask0_214_13" style="mask-type:alpha" maskUnits="userSpaceOnUse" x="0" y="0" width="25" height="25">
<rect x="0.813965" y="0.86969" width="24" height="24" fill="#D9D9D9"/>
</mask>
<g mask="url(#mask0_214_13)">
<path d="M5.81396 21.8697C5.26396 21.8697 4.79296 21.674 4.40096 21.2827C4.00963 20.8907 3.81396 20.4197 3.81396 19.8697V5.86969C3.81396 5.31969 4.00963 4.84869 4.40096 4.45669C4.79296 4.06536 5.26396 3.86969 5.81396 3.86969H19.814C20.364 3.86969 20.835 4.06536 21.227 4.45669C21.6183 4.84869 21.814 5.31969 21.814 5.86969V14.6947C21.514 14.5114 21.1973 14.3614 20.864 14.2447C20.5306 14.128 20.1806 14.0364 19.814 13.9697V5.86969H5.81396V19.8697H12.814C12.814 20.2197 12.839 20.5614 12.889 20.8947C12.939 21.228 13.0223 21.553 13.139 21.8697H5.81396ZM17.814 23.8697V20.8697H14.814V18.8697H17.814V15.8697H19.814V18.8697H22.814V20.8697H19.814V23.8697H17.814ZM8.81396 17.8697C9.0973 17.8697 9.33497 17.7737 9.52697 17.5817C9.7183 17.3904 9.81396 17.153 9.81396 16.8697C9.81396 16.5864 9.7183 16.3487 9.52697 16.1567C9.33497 15.9654 9.0973 15.8697 8.81396 15.8697C8.53063 15.8697 8.29297 15.9654 8.10097 16.1567C7.90963 16.3487 7.81396 16.5864 7.81396 16.8697C7.81396 17.153 7.90963 17.3904 8.10097 17.5817C8.29297 17.7737 8.53063 17.8697 8.81396 17.8697ZM8.81396 13.8697C9.0973 13.8697 9.33497 13.7737 9.52697 13.5817C9.7183 13.3904 9.81396 13.153 9.81396 12.8697C9.81396 12.5864 9.7183 12.3487 9.52697 12.1567C9.33497 11.9654 9.0973 11.8697 8.81396 11.8697C8.53063 11.8697 8.29297 11.9654 8.10097 12.1567C7.90963 12.3487 7.81396 12.5864 7.81396 12.8697C7.81396 13.153 7.90963 13.3904 8.10097 13.5817C8.29297 13.7737 8.53063 13.8697 8.81396 13.8697ZM8.81396 9.86969C9.0973 9.86969 9.33497 9.77369 9.52697 9.58169C9.7183 9.39036 9.81396 9.15302 9.81396 8.86969C9.81396 8.58636 9.7183 8.34869 9.52697 8.15669C9.33497 7.96536 9.0973 7.86969 8.81396 7.86969C8.53063 7.86969 8.29297 7.96536 8.10097 8.15669C7.90963 8.34869 7.81396 8.58636 7.81396 8.86969C7.81396 9.15302 7.90963 9.39036 8.10097 9.58169C8.29297 9.77369 8.53063 9.86969 8.81396 9.86969ZM11.814 13.8697H17.814V11.8697H11.814V13.8697ZM11.814 9.86969H17.814V7.86969H11.814V9.86969ZM11.814 17.8697H13.164C13.2973 17.4864 13.464 17.128 13.664 16.7947C13.864 16.4614 14.0973 16.153 14.364 15.8697H11.814V17.8697Z" fill="white"/>
</g>
</svg>
