<svg width="25" height="25" viewBox="0 0 25 25" fill="none" xmlns="http://www.w3.org/2000/svg">
<mask id="mask0_1153_13" style="mask-type:alpha" maskUnits="userSpaceOnUse" x="0" y="0" width="25" height="25">
<rect x="0.222168" y="0.347168" width="24" height="24" fill="#D9D9D9"/>
</mask>
<g mask="url(#mask0_1153_13)">
<path d="M5.22217 20.3472V12.3472H2.22217L12.2222 3.34717L16.2222 6.94717V4.34717H19.2222V9.64717L22.2222 12.3472H19.2222V20.3472H13.2222V14.3472H11.2222V20.3472H5.22217ZM7.22217 18.3472H9.22217V12.3472H15.2222V18.3472H17.2222V10.5472L12.2222 6.04717L7.22217 10.5472V18.3472ZM10.2222 10.3722H14.2222C14.2222 9.83883 14.0222 9.40117 13.6222 9.05917C13.2222 8.71783 12.7555 8.54717 12.2222 8.54717C11.6888 8.54717 11.2222 8.71783 10.8222 9.05917C10.4222 9.40117 10.2222 9.83883 10.2222 10.3722Z" fill="white"/>
</g>
</svg>
