<svg width="25" height="25" viewBox="0 0 25 25" fill="none" xmlns="http://www.w3.org/2000/svg">
<mask id="mask0_1156_19" style="mask-type:alpha" maskUnits="userSpaceOnUse" x="0" y="0" width="25" height="25">
<rect x="0.404297" y="0.224121" width="24" height="24" fill="#D9D9D9"/>
</mask>
<g mask="url(#mask0_1156_19)">
<path d="M18.9294 9.22412L17.8294 6.82412L15.4294 5.72412L17.8294 4.62412L18.9294 2.22412L20.0294 4.62412L22.4294 5.72412L20.0294 6.82412L18.9294 9.22412ZM20.9294 16.2241L20.1294 14.5241L18.4294 13.7241L20.1294 12.9241L20.9294 11.2241L21.7294 12.9241L23.4294 13.7241L21.7294 14.5241L20.9294 16.2241ZM7.92939 22.2241L7.62939 19.8741C7.49606 19.8241 7.36706 19.7575 7.24239 19.6741C7.11706 19.5908 7.01273 19.5075 6.92939 19.4241L4.72939 20.3741L2.25439 16.0241L4.12939 14.6241V13.8241L2.25439 12.4241L4.72939 8.07412L6.92939 9.02412C7.01273 8.94079 7.11706 8.85745 7.24239 8.77412C7.36706 8.69079 7.49606 8.62412 7.62939 8.57412L7.92939 6.22412H12.9294L13.2294 8.57412C13.3627 8.62412 13.4921 8.69079 13.6174 8.77412C13.7421 8.85745 13.8461 8.94079 13.9294 9.02412L16.1294 8.07412L18.6044 12.4241L16.7294 13.8241V14.6241L18.6044 16.0241L16.1294 20.3741L13.9294 19.4241C13.8461 19.5075 13.7421 19.5908 13.6174 19.6741C13.4921 19.7575 13.3627 19.8241 13.2294 19.8741L12.9294 22.2241H7.92939ZM10.4294 17.2241C11.2627 17.2241 11.9711 16.9325 12.5544 16.3491C13.1377 15.7658 13.4294 15.0575 13.4294 14.2241C13.4294 13.3908 13.1377 12.6825 12.5544 12.0991C11.9711 11.5158 11.2627 11.2241 10.4294 11.2241C9.59606 11.2241 8.88773 11.5158 8.30439 12.0991C7.72106 12.6825 7.42939 13.3908 7.42939 14.2241C7.42939 15.0575 7.72106 15.7658 8.30439 16.3491C8.88773 16.9325 9.59606 17.2241 10.4294 17.2241ZM10.4294 15.2241C10.1461 15.2241 9.90839 15.1281 9.71639 14.9361C9.52506 14.7448 9.42939 14.5075 9.42939 14.2241C9.42939 13.9408 9.52506 13.7031 9.71639 13.5111C9.90839 13.3198 10.1461 13.2241 10.4294 13.2241C10.7127 13.2241 10.9504 13.3198 11.1424 13.5111C11.3337 13.7031 11.4294 13.9408 11.4294 14.2241C11.4294 14.5075 11.3337 14.7448 11.1424 14.9361C10.9504 15.1281 10.7127 15.2241 10.4294 15.2241ZM9.67939 20.2241H11.1794L11.3794 18.4241C11.8627 18.2908 12.2754 18.1201 12.6174 17.9121C12.9587 17.7035 13.2961 17.4241 13.6294 17.0741L15.2794 17.8241L15.9794 16.5741L14.5294 15.4741C14.6627 15.0908 14.7294 14.6741 14.7294 14.2241C14.7294 13.7741 14.6627 13.3575 14.5294 12.9741L15.9794 11.8741L15.2794 10.6241L13.6294 11.3741C13.2961 11.0241 12.9587 10.7448 12.6174 10.5361C12.2754 10.3281 11.8627 10.1575 11.3794 10.0241L11.1794 8.22412H9.67939L9.47939 10.0241C8.99606 10.1575 8.58373 10.3281 8.24239 10.5361C7.90039 10.7448 7.56273 11.0241 7.22939 11.3741L5.57939 10.6241L4.87939 11.8741L6.32939 12.9741C6.19606 13.3575 6.12539 13.7741 6.11739 14.2241C6.10873 14.6741 6.17939 15.0908 6.32939 15.4741L4.87939 16.5741L5.57939 17.8241L7.22939 17.0741C7.56273 17.4241 7.90039 17.7035 8.24239 17.9121C8.58373 18.1201 8.99606 18.2908 9.47939 18.4241L9.67939 20.2241Z" fill="#A5A9AD"/>
</g>
</svg>
