<svg width="14" height="14" viewBox="0 0 14 14" fill="none" xmlns="http://www.w3.org/2000/svg">
<mask id="mask0_330_25" style="mask-type:alpha" maskUnits="userSpaceOnUse" x="0" y="0" width="14" height="14">
<rect width="14" height="14" fill="#D9D9D9"/>
</mask>
<g mask="url(#mask0_330_25)">
<path d="M5.25002 7.29169H5.83335V6.12502H6.41669C6.58197 6.12502 6.7206 6.06902 6.8326 5.95702C6.94422 5.84541 7.00002 5.70697 7.00002 5.54169V4.95835C7.00002 4.79308 6.94422 4.65444 6.8326 4.54244C6.7206 4.43083 6.58197 4.37502 6.41669 4.37502H5.25002V7.29169ZM5.83335 5.54169V4.95835H6.41669V5.54169H5.83335ZM7.58335 7.29169H8.75002C8.9153 7.29169 9.05394 7.23569 9.16594 7.12369C9.27755 7.01208 9.33335 6.87363 9.33335 6.70835V4.95835C9.33335 4.79308 9.27755 4.65444 9.16594 4.54244C9.05394 4.43083 8.9153 4.37502 8.75002 4.37502H7.58335V7.29169ZM8.16669 6.70835V4.95835H8.75002V6.70835H8.16669ZM9.91669 7.29169H10.5V6.12502H11.0834V5.54169H10.5V4.95835H11.0834V4.37502H9.91669V7.29169ZM4.66669 10.5C4.34585 10.5 4.0713 10.3859 3.84302 10.1576C3.61435 9.92894 3.50002 9.65419 3.50002 9.33335V2.33335C3.50002 2.01252 3.61435 1.73777 3.84302 1.5091C4.0713 1.28083 4.34585 1.16669 4.66669 1.16669H11.6667C11.9875 1.16669 12.2623 1.28083 12.4909 1.5091C12.7192 1.73777 12.8334 2.01252 12.8334 2.33335V9.33335C12.8334 9.65419 12.7192 9.92894 12.4909 10.1576C12.2623 10.3859 11.9875 10.5 11.6667 10.5H4.66669ZM4.66669 9.33335H11.6667V2.33335H4.66669V9.33335ZM2.33335 12.8334C2.01252 12.8334 1.73796 12.7192 1.50969 12.4909C1.28102 12.2623 1.16669 11.9875 1.16669 11.6667V3.50002H2.33335V11.6667H10.5V12.8334H2.33335Z" fill="white"/>
</g>
</svg>
