<svg width="15" height="15" viewBox="0 0 15 15" fill="none" xmlns="http://www.w3.org/2000/svg">
<mask id="mask0_330_31" style="mask-type:alpha" maskUnits="userSpaceOnUse" x="0" y="0" width="15" height="15">
<rect x="0.162109" y="0.89209" width="14" height="14" fill="#D9D9D9"/>
</mask>
<g mask="url(#mask0_330_31)">
<path d="M9.49546 5.55876V3.80876H4.8288V5.55876H3.66213V2.64209H10.6621V5.55876H9.49546ZM10.6621 8.18376C10.8274 8.18376 10.9659 8.12776 11.0775 8.01576C11.1895 7.90415 11.2455 7.7657 11.2455 7.60042C11.2455 7.43515 11.1895 7.29651 11.0775 7.18451C10.9659 7.0729 10.8274 7.01709 10.6621 7.01709C10.4969 7.01709 10.3584 7.0729 10.2468 7.18451C10.1348 7.29651 10.0788 7.43515 10.0788 7.60042C10.0788 7.7657 10.1348 7.90415 10.2468 8.01576C10.3584 8.12776 10.4969 8.18376 10.6621 8.18376ZM9.49546 11.9754V9.64209H4.8288V11.9754H9.49546ZM10.6621 13.1421H3.66213V10.8088H1.3288V7.30876C1.3288 6.81292 1.49894 6.3974 1.83921 6.06217C2.17949 5.72656 2.59269 5.55876 3.0788 5.55876H11.2455C11.7413 5.55876 12.157 5.72656 12.4926 6.06217C12.8279 6.3974 12.9955 6.81292 12.9955 7.30876V10.8088H10.6621V13.1421ZM11.8288 9.64209V7.30876C11.8288 7.14348 11.7728 7.00484 11.6608 6.89284C11.5492 6.78123 11.4107 6.72542 11.2455 6.72542H3.0788C2.91352 6.72542 2.77488 6.78123 2.66288 6.89284C2.55127 7.00484 2.49546 7.14348 2.49546 7.30876V9.64209H3.66213V8.47542H10.6621V9.64209H11.8288Z" fill="white"/>
</g>
</svg>
