<svg width="25" height="25" viewBox="0 0 25 25" fill="none" xmlns="http://www.w3.org/2000/svg">
<mask id="mask0_1160_25" style="mask-type:alpha" maskUnits="userSpaceOnUse" x="0" y="0" width="25" height="25">
<rect x="0.571533" y="0.535645" width="24" height="24" fill="#D9D9D9"/>
</mask>
<g mask="url(#mask0_1160_25)">
<path d="M11.5715 22.4855C10.3049 22.3521 9.12587 22.0065 8.03453 21.4485C6.94253 20.8898 5.99253 20.1644 5.18453 19.2724C4.37587 18.3811 3.7382 17.3604 3.27153 16.2104C2.80487 15.0604 2.57153 13.8354 2.57153 12.5354C2.57153 11.0188 2.87587 9.61878 3.48453 8.33545C4.09253 7.05212 4.92153 5.95212 5.97153 5.03545H3.57153V3.03545H9.57153V9.03545H7.57153V6.31045C6.65487 7.04378 5.92553 7.94812 5.38353 9.02345C4.8422 10.0981 4.57153 11.2688 4.57153 12.5354C4.57153 14.5854 5.24253 16.3561 6.58453 17.8474C7.92587 19.3394 9.5882 20.2104 11.5715 20.4604V22.4855ZM11.1465 17.1354L6.92153 12.8854L8.32153 11.4854L11.1465 14.3104L16.8215 8.63545L18.2215 10.0604L11.1465 17.1354ZM15.5715 22.0354V16.0354H17.5715V18.7605C18.4882 18.0105 19.2175 17.1021 19.7595 16.0354C20.3009 14.9688 20.5715 13.8021 20.5715 12.5354C20.5715 10.4854 19.9009 8.71445 18.5595 7.22245C17.2175 5.73112 15.5549 4.86045 13.5715 4.61045V2.58545C16.1049 2.83545 18.2382 3.90212 19.9715 5.78545C21.7049 7.66878 22.5715 9.91878 22.5715 12.5354C22.5715 14.0521 22.2672 15.4521 21.6585 16.7354C21.0505 18.0188 20.2215 19.1188 19.1715 20.0354H21.5715V22.0354H15.5715Z" fill="#A5A9AD"/>
</g>
</svg>
