<svg width="35" height="35" viewBox="0 0 35 35" fill="none" xmlns="http://www.w3.org/2000/svg">
<mask id="mask0_1157_7" style="mask-type:alpha" maskUnits="userSpaceOnUse" x="0" y="0" width="35" height="35">
<rect width="35" height="35" fill="#D9D9D9"/>
</mask>
<g mask="url(#mask0_1157_7)">
<path d="M10.2084 32.0835C9.40629 32.0835 8.7199 31.7981 8.14921 31.2275C7.57754 30.6558 7.29171 29.9689 7.29171 29.1668C7.29171 28.3647 7.57754 27.6779 8.14921 27.1062C8.7199 26.5355 9.40629 26.2502 10.2084 26.2502C11.0105 26.2502 11.6968 26.5355 12.2675 27.1062C12.8392 27.6779 13.125 28.3647 13.125 29.1668C13.125 29.9689 12.8392 30.6558 12.2675 31.2275C11.6968 31.7981 11.0105 32.0835 10.2084 32.0835ZM24.7917 32.0835C23.9896 32.0835 23.3032 31.7981 22.7325 31.2275C22.1609 30.6558 21.875 29.9689 21.875 29.1668C21.875 28.3647 22.1609 27.6779 22.7325 27.1062C23.3032 26.5355 23.9896 26.2502 24.7917 26.2502C25.5938 26.2502 26.2807 26.5355 26.8523 27.1062C27.423 27.6779 27.7084 28.3647 27.7084 29.1668C27.7084 29.9689 27.423 30.6558 26.8523 31.2275C26.2807 31.7981 25.5938 32.0835 24.7917 32.0835ZM17.5 13.8543C17.0868 13.8543 16.7407 13.7143 16.4617 13.4343C16.1817 13.1553 16.0417 12.8092 16.0417 12.396C16.0417 11.9828 16.1817 11.6362 16.4617 11.3562C16.7407 11.0772 17.0868 10.9377 17.5 10.9377C17.9132 10.9377 18.2598 11.0772 18.5398 11.3562C18.8189 11.6362 18.9584 11.9828 18.9584 12.396C18.9584 12.8092 18.8189 13.1553 18.5398 13.4343C18.2598 13.7143 17.9132 13.8543 17.5 13.8543ZM16.0417 8.75016V1.4585H18.9584V8.75016H16.0417ZM10.2084 24.7918C9.11462 24.7918 8.27608 24.3116 7.69275 23.351C7.10942 22.3914 7.09726 21.4377 7.65629 20.4897L9.62504 16.9168L4.37504 5.8335H1.45837V2.91683H6.23442L12.4323 16.0418H22.6771L28.3282 5.8335L30.8802 7.21891L25.2292 17.4272C24.9618 17.9134 24.6094 18.2901 24.1719 18.5575C23.7344 18.8248 23.2362 18.9585 22.6771 18.9585H11.8125L10.2084 21.8752H27.7084V24.7918H10.2084Z" fill="white"/>
</g>
</svg>
