<svg width="35" height="35" viewBox="0 0 35 35" fill="none" xmlns="http://www.w3.org/2000/svg">
<mask id="mask0_1157_13" style="mask-type:alpha" maskUnits="userSpaceOnUse" x="0" y="0" width="35" height="35">
<rect width="35" height="35" fill="#D9D9D9"/>
</mask>
<g mask="url(#mask0_1157_13)">
<path d="M25.302 29.1665L20.1614 23.9894L22.2031 21.9478L25.302 25.0467L31.5 18.8488L33.5416 20.9269L25.302 29.1665ZM7.54683 23.3332H17.5V26.2498H8.74996L2.91663 32.0832V5.83317C2.91663 5.03109 3.20246 4.34421 3.77413 3.77255C4.34482 3.20185 5.03121 2.9165 5.83329 2.9165H29.1666C29.9687 2.9165 30.6556 3.20185 31.2273 3.77255C31.7979 4.34421 32.0833 5.03109 32.0833 5.83317V16.0415H29.1666V5.83317H5.83329V25.0467L7.54683 23.3332Z" fill="white"/>
</g>
</svg>
