<svg width="25" height="25" viewBox="0 0 25 25" fill="none" xmlns="http://www.w3.org/2000/svg">
<mask id="mask0_1156_37" style="mask-type:alpha" maskUnits="userSpaceOnUse" x="0" y="0" width="25" height="25">
<rect x="0.802734" y="0.302246" width="24" height="24" fill="#D9D9D9"/>
</mask>
<g mask="url(#mask0_1156_37)">
<path d="M10.0527 22.3022L9.65269 19.1022C9.43602 19.0189 9.23202 18.9189 9.04069 18.8022C8.84869 18.6856 8.66102 18.5606 8.47769 18.4272L5.50269 19.6772L2.75269 14.9272L5.32769 12.9772C5.31102 12.8606 5.30269 12.7479 5.30269 12.6392V11.9642C5.30269 11.8562 5.31102 11.7439 5.32769 11.6272L2.75269 9.67725L5.50269 4.92725L8.47769 6.17725C8.66102 6.04391 8.85269 5.91891 9.05269 5.80225C9.25269 5.68558 9.45269 5.58558 9.65269 5.50225L10.0527 2.30225H15.5527L15.9527 5.50225C16.1694 5.58558 16.3737 5.68558 16.5657 5.80225C16.757 5.91891 16.9444 6.04391 17.1277 6.17725L20.1027 4.92725L22.8527 9.67725L20.2777 11.6272C20.2944 11.7439 20.3027 11.8562 20.3027 11.9642V12.6392C20.3027 12.7479 20.286 12.8606 20.2527 12.9772L22.8277 14.9272L20.0777 19.6772L17.1277 18.4272C16.9444 18.5606 16.7527 18.6856 16.5527 18.8022C16.3527 18.9189 16.1527 19.0189 15.9527 19.1022L15.5527 22.3022H10.0527ZM12.8527 15.8022C13.8194 15.8022 14.6444 15.4606 15.3277 14.7772C16.011 14.0939 16.3527 13.2689 16.3527 12.3022C16.3527 11.3356 16.011 10.5106 15.3277 9.82725C14.6444 9.14391 13.8194 8.80225 12.8527 8.80225C11.8694 8.80225 11.04 9.14391 10.3647 9.82725C9.69002 10.5106 9.35269 11.3356 9.35269 12.3022C9.35269 13.2689 9.69002 14.0939 10.3647 14.7772C11.04 15.4606 11.8694 15.8022 12.8527 15.8022ZM12.8527 13.8022C12.436 13.8022 12.082 13.6562 11.7907 13.3642C11.4987 13.0729 11.3527 12.7189 11.3527 12.3022C11.3527 11.8856 11.4987 11.5316 11.7907 11.2402C12.082 10.9482 12.436 10.8022 12.8527 10.8022C13.2694 10.8022 13.6237 10.9482 13.9157 11.2402C14.207 11.5316 14.3527 11.8856 14.3527 12.3022C14.3527 12.7189 14.207 13.0729 13.9157 13.3642C13.6237 13.6562 13.2694 13.8022 12.8527 13.8022ZM11.8027 20.3022H13.7777L14.1277 17.6522C14.6444 17.5189 15.1237 17.3229 15.5657 17.0642C16.007 16.8062 16.411 16.4939 16.7777 16.1272L19.2527 17.1522L20.2277 15.4522L18.0777 13.8272C18.161 13.5939 18.2194 13.3479 18.2527 13.0892C18.286 12.8312 18.3027 12.5689 18.3027 12.3022C18.3027 12.0356 18.286 11.7729 18.2527 11.5142C18.2194 11.2562 18.161 11.0106 18.0777 10.7772L20.2277 9.15225L19.2527 7.45225L16.7777 8.50225C16.411 8.11891 16.007 7.79791 15.5657 7.53925C15.1237 7.28125 14.6444 7.08558 14.1277 6.95225L13.8027 4.30225H11.8277L11.4777 6.95225C10.961 7.08558 10.482 7.28125 10.0407 7.53925C9.59869 7.79791 9.19435 8.11058 8.82769 8.47725L6.35269 7.45225L5.37769 9.15225L7.52769 10.7522C7.44435 11.0022 7.38602 11.2522 7.35269 11.5022C7.31935 11.7522 7.30269 12.0189 7.30269 12.3022C7.30269 12.5689 7.31935 12.8272 7.35269 13.0772C7.38602 13.3272 7.44435 13.5772 7.52769 13.8272L5.37769 15.4522L6.35269 17.1522L8.82769 16.1022C9.19435 16.4856 9.59869 16.8062 10.0407 17.0642C10.482 17.3229 10.961 17.5189 11.4777 17.6522L11.8027 20.3022Z" fill="#A5A9AD"/>
</g>
</svg>
