<svg width="24" height="24" viewBox="0 0 24 24" fill="none" xmlns="http://www.w3.org/2000/svg">
<mask id="mask0_1156_49" style="mask-type:alpha" maskUnits="userSpaceOnUse" x="0" y="0" width="24" height="24">
<rect width="24" height="24" fill="#D9D9D9"/>
</mask>
<g mask="url(#mask0_1156_49)">
<path d="M12 17C11.7167 17 11.4793 16.904 11.288 16.712C11.096 16.5207 11 16.2833 11 16C11 15.7167 11.096 15.479 11.288 15.287C11.4793 15.0957 11.7167 15 12 15C12.2833 15 12.521 15.0957 12.713 15.287C12.9043 15.479 13 15.7167 13 16C13 16.2833 12.9043 16.5207 12.713 16.712C12.521 16.904 12.2833 17 12 17ZM11 13V7H13V13H11ZM7 23C6.45 23 5.97933 22.8043 5.588 22.413C5.196 22.021 5 21.55 5 21V3C5 2.45 5.196 1.979 5.588 1.587C5.97933 1.19567 6.45 1 7 1H17C17.55 1 18.021 1.19567 18.413 1.587C18.8043 1.979 19 2.45 19 3V21C19 21.55 18.8043 22.021 18.413 22.413C18.021 22.8043 17.55 23 17 23H7ZM7 20V21H17V20H7ZM7 18H17V6H7V18ZM7 4H17V3H7V4Z" fill="#A5A9AD"/>
</g>
</svg>
